<svg xmlns="http://www.w3.org/2000/svg" width="13.246" height="13.246" viewBox="0 0 13.246 13.246">
    <path id="noun-account-644483" d="M137.673,131.25a6.423,6.423,0,1,0,6.423,6.423A6.43,6.43,0,0,0,137.673,131.25ZM133.8,142.131a.252.252,0,0,0,.018-.09,3.854,3.854,0,0,1,7.708,0,.254.254,0,0,0,.018.091,5.892,5.892,0,0,1-7.744,0Zm8.221-.462a4.374,4.374,0,0,0-3.146-3.824,2.312,2.312,0,1,0-2.406,0,4.373,4.373,0,0,0-3.146,3.824,5.909,5.909,0,1,1,8.7,0Zm-4.349-4a1.8,1.8,0,1,1,1.8-1.8A1.8,1.8,0,0,1,137.673,137.673Z" transform="translate(-131.05 -131.05)" fill="#2b2b2b" stroke="#2b2b2b" stroke-width="0.4"/>
</svg>
