<svg xmlns="http://www.w3.org/2000/svg" xmlns:xlink="http://www.w3.org/1999/xlink" version="1.1" x="0px" y="0px" viewBox="0 0 24 24" style="enable-background:new 0 0 24 24;" xml:space="preserve"><path d="M11.888,20.964c0.035,0.018,0.074,0.026,0.112,0.026s0.077-0.009,0.112-0.026c3.31-1.655,9.638-7.765,9.638-12.384  c0-4.087-3.331-5.57-5.57-5.57c-1.969,0-3.628,1.57-4.18,2.156C11.449,4.58,9.79,3.01,7.82,3.01c-2.239,0-5.57,1.483-5.57,5.57  C2.25,13.199,8.579,19.309,11.888,20.964z M7.82,3.51c2.133,0,3.969,2.168,3.988,2.19c0.095,0.113,0.289,0.113,0.384,0  c0.019-0.022,1.854-2.19,3.988-2.19c2.038,0,5.07,1.35,5.07,5.07c0,4.457-6.336,10.354-9.25,11.879  C9.086,18.934,2.75,13.037,2.75,8.58C2.75,4.86,5.782,3.51,7.82,3.51z"></path></svg>