<svg xmlns="http://www.w3.org/2000/svg" width="10.34" height="13.246" viewBox="0 0 10.34 13.246">
  <path id="noun-bag-3578259" d="M162.305,27.781a2.569,2.569,0,0,0-2.6,2.533v.862h-1.392a.281.281,0,0,0-.28.256l-.769,8.89a.281.281,0,0,0,.28.3h9.378a.281.281,0,0,0,.28-.3l-.769-8.89a.281.281,0,0,0-.28-.256H164.9v-.862a2.569,2.569,0,0,0-2.6-2.532Zm-2.037,2.533a2.038,2.038,0,0,1,4.073,0v.862h-4.073Zm5.629,1.423.72,8.329h-8.766l.72-8.329h1.135V34.51h.561V31.737h4.073V34.51h.561V31.737Z" transform="translate(-157.065 -27.581)" fill="#2b2b2b" stroke="#2b2b2b" stroke-width="0.4"/>
</svg>
